PathFileType  4	(X/Y/Z) /Users/mattheworga/Documents/Git/DLSU/thesis/database/S00_Demo-Batch/P00_Demo-man/T00_Trial/pose-3d
DataRate	CameraRate	NumFrames	NumMarkers	Units	OrigDataRate	OrigDataStartFrame	OrigNumFrames
60.0	60.0	11	22	m	60.0	80	100
Frame#	Time	Hip			RHip			RKnee			RAnkle			RBigToe			RSmallToe			RHeel			LHip			LKnee			LAnkle			LBigToe			LSmallToe			LHeel			Neck			Head			Nose			RShoulder			RElbow			RWrist			LShoulder			LElbow			LWrist			
		X1	Y1	Z1	X2	Y2	Z2	X3	Y3	Z3	X4	Y4	Z4	X5	Y5	Z5	X6	Y6	Z6	X7	Y7	Z7	X8	Y8	Z8	X9	Y9	Z9	X10	Y10	Z10	X11	Y11	Z11	X12	Y12	Z12	X13	Y13	Z13	X14	Y14	Z14	X15	Y15	Z15	X16	Y16	Z16	X17	Y17	Z17	X18	Y18	Z18	X19	Y19	Z19	X20	Y20	Z20	X21	Y21	Z21	X22	Y22	Z22	

81	1.3333333	-0.0361511	0.9072769	-0.8194695	-0.1376212	0.9061541	-0.8028380	-0.0974584	0.5246182	-0.6805362	-0.0485657	0.1324259	-0.7414426	-0.0563448	0.0621470	-0.5664271	-0.1069076	0.0596689	-0.6059668	-0.0402010	0.0805157	-0.7719434	0.0574271	0.8789956	-0.8181632	0.0018640	0.4789981	-0.9270769	-0.0224561	0.1739643	-1.1495480	-0.0022967	0.0687191	-0.9891849	0.0356101	0.0741576	-1.0433522	-0.0285271	0.1383034	-1.2045776	0.0520193	1.4389090	-0.7191039	0.0739127	1.6539471	-0.6403032	0.0841492	1.4902117	-0.5350145	-0.1488036	1.4262321	-0.7520227	-0.3869935	1.3223113	-0.7584989	-0.3723087	1.3955242	-0.4904838	0.1918393	1.3648695	-0.8377924	0.4027672	1.1352851	-0.8818107	0.5225159	0.9493464	-0.8105161
82	1.3500000	-0.0286082	0.9076331	-0.8112594	-0.1303292	0.9055729	-0.7931767	-0.0931587	0.5248605	-0.6682500	-0.0479882	0.1307762	-0.7411950	-0.0574250	0.0601281	-0.5669508	-0.1074301	0.0587111	-0.6077887	-0.0405642	0.0781534	-0.7733226	0.0659602	0.8800208	-0.8084770	0.0103591	0.4785945	-0.9114445	-0.0176343	0.1822250	-1.1446493	-0.0022271	0.0742420	-0.9845607	0.0353330	0.0798298	-1.0391424	-0.0236076	0.1491209	-1.2027721	0.0384251	1.4407713	-0.7111631	0.0695856	1.6508835	-0.6018037	0.0635502	1.4945811	-0.5219648	-0.1610185	1.4217975	-0.7376555	-0.3945279	1.3082717	-0.7552301	-0.3890107	1.3742113	-0.4824251	0.1839418	1.3767306	-0.8255010	0.4120922	1.1608400	-0.8626461	0.5495565	0.9856586	-0.7951356
83	1.3666667	-0.0213818	0.9088868	-0.8031249	-0.1233505	0.9059975	-0.7848207	-0.0894292	0.5257482	-0.6581701	-0.0482160	0.1301659	-0.7405439	-0.0587597	0.0583066	-0.5682547	-0.1082562	0.0581860	-0.6096911	-0.0415853	0.0766279	-0.7742806	0.0740711	0.8819685	-0.7989200	0.0205159	0.4799436	-0.8885131	-0.0111685	0.1933820	-1.1341594	-0.0023298	0.0816731	-0.9767658	0.0351084	0.0870465	-1.0314255	-0.0169355	0.1629037	-1.1959013	0.0246445	1.4422820	-0.7024206	0.0682870	1.6444694	-0.5625382	0.0414067	1.4976865	-0.5086645	-0.1727226	1.4167728	-0.7236372	-0.4020194	1.2933905	-0.7518111	-0.4064123	1.3517447	-0.4754040	0.1782603	1.3881194	-0.8052320	0.4184365	1.1909756	-0.8465001	0.5753067	1.0264363	-0.7780086
84	1.3833333	-0.0145606	0.9110101	-0.7947215	-0.1166523	0.9070199	-0.7778704	-0.0859927	0.5271785	-0.6502145	-0.0485997	0.1302894	-0.7398661	-0.0598693	0.0563446	-0.5705052	-0.1088177	0.0575970	-0.6116112	-0.0425405	0.0757645	-0.7750407	0.0815573	0.8847997	-0.7892098	0.0320256	0.4834903	-0.8574912	-0.0031311	0.2067902	-1.1166503	-0.0022418	0.0903133	-0.9656742	0.0352367	0.0951247	-1.0197993	-0.0086795	0.1785820	-1.1819835	0.0108259	1.4432824	-0.6928348	0.0639745	1.6372194	-0.5299387	0.0184603	1.4994746	-0.4952316	-0.1838124	1.4107819	-0.7111086	-0.4094916	1.2777527	-0.7476860	-0.4240688	1.3287505	-0.4680961	0.1743460	1.3986285	-0.7781773	0.4208382	1.2249230	-0.8332973	0.5977954	1.0718114	-0.7601263
85	1.4000000	-0.0082715	0.9138329	-0.7857429	-0.1103702	0.9083237	-0.7720131	-0.0828580	0.5287950	-0.6441837	-0.0488066	0.1309829	-0.7391231	-0.0604166	0.0541218	-0.5734894	-0.1088802	0.0568808	-0.6132028	-0.0430373	0.0755934	-0.7753189	0.0882941	0.8883814	-0.7793072	0.0441224	0.4889396	-0.8201135	0.0063283	0.2207854	-1.0920600	-0.0012133	0.0992632	-0.9517255	0.0365789	0.1033374	-1.0044376	0.0007700	0.1940683	-1.1603553	-0.0028142	1.4435233	-0.6822401	0.0518661	1.6317748	-0.5030685	-0.0041788	1.4997657	-0.4813563	-0.1941758	1.4036365	-0.7007030	-0.4166735	1.2616026	-0.7426896	-0.4415407	1.3058997	-0.4600396	0.1707518	1.4081223	-0.7488161	0.4186818	1.2610796	-0.8218138	0.6160970	1.1214866	-0.7414052
86	1.4166667	-0.0026154	0.9169409	-0.7762663	-0.1046754	0.9097004	-0.7665556	-0.0802504	0.5300768	-0.6397210	-0.0488452	0.1322200	-0.7378595	-0.0602821	0.0518633	-0.5766165	-0.1084209	0.0563413	-0.6140891	-0.0430276	0.0763404	-0.7746377	0.0942946	0.8923819	-0.7694924	0.0557872	0.4953313	-0.7801059	0.0168809	0.2331200	-1.0615661	0.0013706	0.1079146	-0.9349139	0.0399545	0.1112224	-0.9851189	0.0108393	0.2068086	-1.1318575	-0.0159756	1.4429130	-0.6705172	0.0306786	1.6294689	-0.4780982	-0.0254733	1.4982871	-0.4665467	-0.2036222	1.3955428	-0.6923138	-0.4229941	1.2452712	-0.7370294	-0.4586558	1.2835402	-0.4525972	0.1661319	1.4165497	-0.7221369	0.4117203	1.2975735	-0.8103818	0.6294271	1.1744225	-0.7214469
87	1.4333333	0.0024463	0.9197682	-0.7665925	-0.0995876	0.9109636	-0.7608458	-0.0784119	0.5306448	-0.6363849	-0.0489900	0.1340131	-0.7355769	-0.0596491	0.0500756	-0.5791695	-0.1075381	0.0562734	-0.6141172	-0.0427636	0.0782272	-0.7727675	0.0996654	0.8963303	-0.7600983	0.0661162	0.5017714	-0.7411509	0.0279425	0.2420745	-1.0267678	0.0056334	0.1160702	-0.9142771	0.0456635	0.1187088	-0.9608787	0.0208963	0.2150230	-1.0981009	-0.0283790	1.4415303	-0.6578446	0.0032688	1.6297219	-0.4536181	-0.0447312	1.4947185	-0.4505096	-0.2119411	1.3869698	-0.6854105	-0.4277485	1.2290177	-0.7310802	-0.4750511	1.2616007	-0.4476098	0.1599499	1.4237574	-0.7011571	0.4006866	1.3326631	-0.7967672	0.6368474	1.2291660	-0.7002428
88	1.4500000	0.0071357	0.9218159	-0.7568756	-0.0949434	0.9118353	-0.7546044	-0.0774192	0.5303683	-0.6339069	-0.0496361	0.1363344	-0.7321771	-0.0589082	0.0492627	-0.5805633	-0.1064413	0.0566642	-0.6135114	-0.0426864	0.0812848	-0.7699158	0.1044877	0.8997926	-0.7513910	0.0744484	0.5079331	-0.7055742	0.0387250	0.2471765	-0.9892281	0.0112671	0.1236717	-0.8883412	0.0534991	0.1259555	-0.9305074	0.0303418	0.2185119	-1.0609398	-0.0398284	1.4395335	-0.6445813	-0.0259343	1.6308042	-0.4302648	-0.0616081	1.4888826	-0.4331652	-0.2190460	1.3783406	-0.6793866	-0.4304341	1.2128665	-0.7251743	-0.4898471	1.2398249	-0.4452114	0.1521163	1.4295732	-0.6871065	0.3878119	1.3646861	-0.7783512	0.6382441	1.2836010	-0.6788885
89	1.4666667	0.0117101	0.9228383	-0.7471303	-0.0905211	0.9120202	-0.7479044	-0.0771846	0.5291535	-0.6323547	-0.0510501	0.1391289	-0.7281250	-0.0585831	0.0496051	-0.5804690	-0.1054394	0.0570825	-0.6128610	-0.0431772	0.0854037	-0.7666743	0.1086833	0.9025705	-0.7438516	0.0803577	0.5138863	-0.6743609	0.0484374	0.2488838	-0.9503463	0.0176249	0.1304297	-0.8557730	0.0627609	0.1329530	-0.8931754	0.0387326	0.2182248	-1.0221184	-0.0502206	1.4371122	-0.6310649	-0.0534905	1.6308891	-0.4088238	-0.0761739	1.4810640	-0.4147523	-0.2250215	1.3698897	-0.6736365	-0.4309143	1.1967110	-0.7195109	-0.5021025	1.2180643	-0.4437693	0.1427153	1.4339818	-0.6800076	0.3754135	1.3923381	-0.7551857	0.6350344	1.3347508	-0.6591497
90	1.4833333	0.0162688	0.9228939	-0.7374773	-0.0862029	0.9114209	-0.7411656	-0.0776266	0.5268452	-0.6320040	-0.0531564	0.1423361	-0.7243052	-0.0592648	0.0507984	-0.5788963	-0.1048816	0.0568048	-0.6128504	-0.0442985	0.0903954	-0.7639157	0.1119567	0.9047537	-0.7384790	0.0837626	0.5197401	-0.6475637	0.0565093	0.2478742	-0.9110555	0.0237691	0.1356215	-0.8158653	0.0721930	0.1392040	-0.8489421	0.0460381	0.2150354	-0.9822741	-0.0595487	1.4344350	-0.6176444	-0.0775165	1.6288570	-0.3898570	-0.0889613	1.4721744	-0.3961428	-0.2300308	1.3617439	-0.6676541	-0.4293830	1.1806254	-0.7142059	-0.5113979	1.1964173	-0.4416782	0.1322252	1.4372642	-0.6785136	0.3639703	1.4152314	-0.7321663	0.6285520	1.3801194	-0.6414820
91	1.5000000	0.0206612	0.9222771	-0.7281858	-0.0820986	0.9101945	-0.7351740	-0.0787351	0.5234416	-0.6330717	-0.0555171	0.1457903	-0.7216287	-0.0611462	0.0523234	-0.5761500	-0.1049194	0.0554345	-0.6137659	-0.0457226	0.0958540	-0.7625688	0.1139082	0.9066064	-0.7363797	0.0849537	0.5254949	-0.6247098	0.0627066	0.2446666	-0.8715805	0.0286935	0.1384910	-0.7689390	0.0802796	0.1438477	-0.7990205	0.0525882	0.2091777	-0.9406301	-0.0678981	1.4316147	-0.6047761	-0.0975816	1.6247412	-0.3735628	-0.1006092	1.4635211	-0.3785624	-0.2342126	1.3540431	-0.6612273	-0.4263534	1.1650208	-0.7092903	-0.5178928	1.1752077	-0.4385654	0.1214624	1.4399550	-0.6804756	0.3526391	1.4337981	-0.7157931	0.6183897	1.4192076	-0.6242149
